# xmcd
#
# Track frame offsets:
#       187
#       10817
#       23070
#       36935
#       49355
#       69550
#       83627
#       98215
#       109877
#       123265
#       136470
#       153035
#       166582
#       181045
#       198715
#       216662
#       230645
#       246102
#       259157
#       278485
#       289710
#       308417
#
# Disc length: 4285 seconds
#
# Revision: 0
# Processed by: cddbd v1.4PL0 Copyright (c) Steve Scherf et al.
# Submitted via: WhereIsIt 3.22
#
DISCID=2d10bb16
DTITLE=Earl Grant - the end
DYEAR=1900
DGENRE=
TTITLE0=At the end of a rainbow
TTITLE1=Evening rain
TTITLE2=House of bamboo
TTITLE3=Swingin' gently
TTITLE4=Sweet sixteen bars
TTITLE5=Stand by me
TTITLE6=Fever
TTITLE7=Dream
TTITLE8=Unforgettable
TTITLE9=Misty
TTITLE10=Days of wind and roses
TTITLE11=It's only a paper moon
TTITLE12=Danny boy
TTITLE13=Georgia on my mind
TTITLE14=Ebb tide
TTITLE15=Beyond the reef
TTITLE16=Red sails in the sunset
TTITLE17=My foolish heart
TTITLE18=Malaguena
TTITLE19=C'est si bon
TTITLE20=Moon river
TTITLE21=Hallelujah i love her so
EXTD=
EXTT0=
EXTT1=
EXTT2=
EXTT3=
EXTT4=
EXTT5=
EXTT6=
EXTT7=
EXTT8=
EXTT9=
EXTT10=
EXTT11=
EXTT12=
EXTT13=
EXTT14=
EXTT15=
EXTT16=
EXTT17=
EXTT18=
EXTT19=
EXTT20=
EXTT21=
PLAYORDER=
